<!-- Generated by IcoMoon.io -->
<svg version="1.1" xmlns="http://www.w3.org/2000/svg" width="32" height="32" viewBox="0 0 32 32">
<title>arrow</title>
<path fill="#ff7129" d="M31.333 14.667h-27.057l6.862-6.862c0.125-0.125 0.195-0.294 0.195-0.471v-1.333c0-0.27-0.162-0.513-0.411-0.616-0.083-0.035-0.169-0.051-0.255-0.051-0.173 0-0.344 0.068-0.471 0.195l-10 10c-0.26 0.26-0.26 0.682 0 0.943l10 10c0.191 0.19 0.476 0.248 0.727 0.145 0.249-0.103 0.411-0.346 0.411-0.616v-1.333c0-0.177-0.070-0.346-0.195-0.471l-6.862-6.862h27.057c0.369 0 0.667-0.298 0.667-0.667v-1.333c-0-0.368-0.298-0.667-0.667-0.667z"></path>
</svg>
